<?xml version="1.0" encoding="UTF-8"?>
<svg version="1.1" xmlns="http://www.w3.org/2000/svg" width="1024" height="221">
<path d="M0 0 C3.36944815 2.55688027 6.48071772 5.24934044 9.4296875 8.28125 C9.54183594 7.39373047 9.54183594 7.39373047 9.65625 6.48828125 C10.3369489 2.39741432 10.95512535 -0.86698777 14.0546875 -3.78125 C18.91237531 -6.56992263 22.24391026 -6.4075667 27.7421875 -5.21875 C30.91771814 -2.3960561 32.14526191 2.19197995 32.70838547 6.32844734 C32.81596613 8.47561163 32.83545381 10.60437923 32.81787109 12.75415039 C32.82312805 13.56027771 32.82838501 14.36640503 32.83380127 15.19696045 C32.84691737 17.84114434 32.83828732 20.48471703 32.828125 23.12890625 C32.83014953 24.98726007 32.83306411 26.84561311 32.83682251 28.70396423 C32.84123572 32.59495625 32.83485232 36.48574114 32.82080078 40.37670898 C32.80379322 45.32327768 32.81350278 50.2693549 32.83151817 55.21590519 C32.84245493 59.05534948 32.83886338 62.89468092 32.8311348 66.73412895 C32.82915562 68.55547585 32.83151025 70.37683353 32.83857346 72.1981678 C32.93480734 104.01025193 32.93480734 104.01025193 22.4296875 115.96875 C11.4386196 126.27728905 -5.09024402 126.86131468 -19.2890625 126.59765625 C-30.27324482 126.12549446 -43.10757976 123.15032879 -51.44140625 115.58203125 C-54.73806926 111.93751891 -57.46984037 108.40844504 -57.6328125 103.3359375 C-57.41176667 99.59197371 -56.93634892 97.7249305 -54.5078125 94.78125 C-50.76728916 92.87119553 -47.64242036 92.50867618 -43.5703125 93.28125 C-38.711676 95.66099033 -35.80320226 99.1626145 -32.57421875 103.37890625 C-27.34853164 108.33974372 -21.48931792 108.78239689 -14.6328125 108.71875 C-13.87291016 108.73873047 -13.11300781 108.75871094 -12.33007812 108.77929688 C-6.68031875 108.77447214 -2.25770935 107.50032219 2.4296875 104.28125 C7.61858321 98.02796543 7.61805895 91.73958395 7.9921875 83.96875 C8.05696289 82.71481445 8.05696289 82.71481445 8.12304688 81.43554688 C8.22854057 79.38428065 8.32956065 77.3327852 8.4296875 75.28125 C7.83542969 75.88453125 7.24117188 76.4878125 6.62890625 77.109375 C-2.20673906 85.62897078 -11.22592298 89.42478941 -23.5703125 89.28125 C-33.08284856 88.46920424 -42.3719762 84.64540215 -48.91015625 77.55078125 C-59.52048374 63.04583944 -62.51935915 46.42808025 -60.1015625 28.87890625 C-57.6778792 17.90019796 -52.79155631 7.09078389 -43.5703125 0.28125 C-29.85203906 -7.32944261 -13.55280804 -9.06266799 0 0 Z M-30.8828125 19.65625 C-37.20862521 29.49640311 -37.89977813 40.85378992 -36.109375 52.203125 C-34.33976838 58.90681124 -31.35062156 65.07295065 -25.203125 68.6640625 C-18.76765865 71.46124088 -13.26582715 72.31661304 -6.5078125 70.09375 C0.89484627 66.97834534 4.03508331 62.85259848 7.44921875 55.78125 C10.89004329 47.00783285 10.35332425 36.1496148 7.4296875 27.28125 C4.54396678 21.07067715 1.59108595 16.43040921 -4.5703125 13.28125 C-14.87721981 9.84561423 -23.51916625 12.09358629 -30.8828125 19.65625 Z " fill="#A446EA" transform="translate(475.5703125,78.71875)"/>
<path d="M0 0 C5.36210896 4.005032 6.77822753 8.98860135 8.6875 15.125 C9.17972046 16.64782593 9.17972046 16.64782593 9.68188477 18.20141602 C13.31011828 29.6129721 16.54700412 41.14860677 19.76245117 52.68212891 C19.97065491 53.42548996 20.17885864 54.16885101 20.39337158 54.93473816 C20.78736233 56.34349947 21.17847696 57.75306917 21.56634521 59.16352844 C22.27784492 62.3455496 22.27784492 62.3455496 24 65 C24.30614227 63.92671196 24.30614227 63.92671196 24.61846924 62.83174133 C26.54797436 56.07515592 28.48881671 49.32195515 30.44232559 42.57227802 C31.4461478 39.10242891 32.44560697 35.63144754 33.43505859 32.1574707 C34.3908591 28.80225754 35.35816634 25.45055765 36.33339691 22.10094261 C36.881855 20.20608063 37.41847488 18.30780506 37.95489502 16.40950012 C38.46497101 14.66826118 38.46497101 14.66826118 38.98535156 12.8918457 C39.27847229 11.87258499 39.57159302 10.85332428 39.87359619 9.80317688 C41.41871231 5.95798943 43.48433425 2.99343636 46.97265625 0.70703125 C51.56152527 -0.89332577 56.33711043 -0.66515583 60.8125 1.125 C66.90437294 6.34660538 68.4955799 13.09230519 70.6015625 20.56640625 C70.92410004 21.67805649 71.24663757 22.78970673 71.57894897 23.93504333 C72.60409044 27.47479028 73.6150774 31.01838412 74.625 34.5625 C75.64477563 38.10934699 76.66747012 41.65532897 77.69247437 45.20066833 C78.32830348 47.40328288 78.96062619 49.60691339 79.58901978 51.81166077 C79.87626923 52.81297531 80.16351868 53.81428986 80.45947266 54.84594727 C80.70944 55.7227565 80.95940735 56.59956573 81.21694946 57.50294495 C82.01984912 60.06329648 82.9719195 62.52242424 84 65 C84.20409485 64.29922333 84.4081897 63.59844666 84.61846924 62.87643433 C86.54947483 56.25299795 88.49039702 49.6325398 90.44232559 43.01524162 C91.4453412 39.61361121 92.44457245 36.21096588 93.43505859 32.80566406 C94.5755497 28.88527177 95.73265868 24.96995405 96.890625 21.0546875 C97.24183411 19.83884979 97.59304321 18.62301208 97.95489502 17.37033081 C101.9258432 4.04943787 101.9258432 4.04943787 108 0 C114.94677871 -0.67226891 114.94677871 -0.67226891 118.9375 1.875 C122.11584605 5.14965957 122.2314288 7.30231296 122.16732788 11.83734131 C121.90752314 15.19523352 120.92185546 18.14303486 119.83203125 21.3203125 C119.60086105 22.00550964 119.36969086 22.69070679 119.1315155 23.39666748 C118.37021809 25.64363223 117.59178885 27.88421798 116.8125 30.125 C116.27310769 31.70165046 115.73471423 33.27864295 115.19726562 34.85595703 C114.06278323 38.18014673 112.92130982 41.50183383 111.77587891 44.82226562 C110.27114626 49.19450375 108.7963826 53.57618253 107.33268738 57.96231079 C106.17512833 61.43060952 105.0100489 64.89635638 103.84384155 68.36175537 C103.2846811 70.02712372 102.72802842 71.69333633 102.17398071 73.3604126 C101.39531611 75.69896655 100.60531017 78.03339744 99.8125 80.3671875 C99.4740229 81.39619171 99.4740229 81.39619171 99.12870789 82.44598389 C97.16991395 88.14984373 95.0562151 92.75014376 89.8125 95.9375 C85.15973655 97.23417178 81.63655369 97.36472146 77 96 C66.48104705 89.30612085 63.56098987 67.0212669 60.1875 55.6875 C59.58444491 53.67499215 58.98093271 51.66262122 58.37695312 49.65039062 C56.91269813 44.76848834 55.4546269 39.88477932 54 35 C52.16580286 37.75129571 51.4202407 39.53702572 50.53540039 42.65161133 C50.264944 43.59301468 49.99448761 44.53441803 49.71583557 45.50434875 C49.4293364 46.51998398 49.14283722 47.5356192 48.84765625 48.58203125 C48.22981778 50.73242189 47.61197923 52.88281252 46.99414062 55.03320312 C46.027165 58.4231413 45.06217619 61.81363863 44.09790039 65.2043457 C43.16513834 68.47747519 42.2253721 71.74853652 41.28515625 75.01953125 C41.0006813 76.02909378 40.71620636 77.03865631 40.42311096 78.07881165 C36.3365284 92.28073333 36.3365284 92.28073333 30 96 C25.63066825 97.17915423 22.10830723 97.31970401 17.75 96.0625 C11.54492918 91.40869688 8.98488259 84.00773377 6.58203125 76.8671875 C6.28282776 76.00442703 5.98362427 75.14166656 5.675354 74.25276184 C4.71102073 71.46351603 3.76124235 68.66958342 2.8125 65.875 C2.15027499 63.94485663 1.48742842 62.01492641 0.82397461 60.08520508 C-0.50213146 56.22094352 -1.82138651 52.35444502 -3.13476562 48.48583984 C-4.56219262 44.28152679 -6.00301823 40.08207058 -7.45231628 35.88525391 C-8.40432972 33.12330243 -9.34790874 30.35853914 -10.28823853 27.59259033 C-10.92262591 25.73114418 -11.56413444 23.87212977 -12.20581055 22.01318359 C-12.5800415 20.8989502 -12.95427246 19.7847168 -13.33984375 18.63671875 C-13.66331787 17.68498779 -13.98679199 16.73325684 -14.32006836 15.75268555 C-15.22315582 12.09655946 -15.84158921 8.53220631 -13.9765625 5.13671875 C-9.80112628 0.65958916 -6.28577115 -1.51764565 0 0 Z " fill="#AC31A6" transform="translate(125,73)"/>
<path d="M0 0 C3.14984987 3.77981984 4.07688715 7.89360868 5.1875 12.625 C5.64898437 12.10550781 6.11046875 11.58601563 6.5859375 11.05078125 C13.28098084 3.89264202 20.79933914 -0.94489204 30.7265625 -1.61328125 C42.84353427 -1.94561891 50.72677152 0.05117409 60.1796875 8.0390625 C66.04417924 15.59216275 66.82141557 23.77910064 66.9375 33.0625 C66.96497314 34.24739014 66.99244629 35.43228027 67.02075195 36.65307617 C67.08716831 39.92814069 67.13313608 43.20258938 67.16534424 46.47814941 C67.18856999 48.72867993 67.21864917 50.97905415 67.24951172 53.22949219 C67.30131317 57.18827914 67.33714496 61.14693378 67.36071777 65.10598755 C67.37017207 66.64936026 67.38209908 68.19271998 67.39660645 69.73605347 C67.41446401 71.9139967 67.41823836 74.09152345 67.41796875 76.26953125 C67.42207764 77.52096924 67.42618652 78.77240723 67.43041992 80.06176758 C67.08562953 85.11927093 66.48251407 89.2580407 62.9375 93 C59.77983373 94.8658937 57.86069294 95.55153614 54.1875 95.625 C49.63726883 94.15967132 46.5723023 92.86464853 44.1875 88.625 C43.21549653 85.70898959 43.04705131 83.78398364 43.01391602 80.74560547 C43.00042618 79.75382294 42.98693634 78.76204041 42.97303772 77.74020386 C42.96259933 76.66835846 42.95216095 75.59651306 42.94140625 74.4921875 C42.90845198 72.21874638 42.87524061 69.94530897 42.84179688 67.671875 C42.79451046 64.09084774 42.75010823 60.50983379 42.71069336 56.92871094 C42.67075459 53.47053941 42.61924704 50.01268268 42.56640625 46.5546875 C42.5579921 45.49498749 42.54957794 44.43528748 42.54090881 43.34347534 C42.39708052 34.60855047 41.96410111 26.59090134 36.1875 19.625 C31.717366 16.87268819 27.28385331 16.89375165 22.1875 17.625 C16.7438759 19.67376677 12.20607391 22.55379583 9.1875 27.625 C7.09387775 33.48505249 6.87842271 38.86646916 6.84375 45.0546875 C6.8291272 46.04445587 6.81450439 47.03422424 6.79943848 48.0539856 C6.75316746 51.20261646 6.71884826 54.3511874 6.6875 57.5 C6.64611004 61.64345359 6.59234345 65.7864827 6.53125 69.9296875 C6.5259729 70.8674704 6.5206958 71.8052533 6.51525879 72.77145386 C6.41013974 79.80598602 6.24826142 86.79881291 2 92.625 C-1.4635183 95.08794634 -3.56929025 95.625 -7.8125 95.625 C-11.43775975 94.23066933 -14.3802556 92.69730872 -16.8125 89.625 C-18.0179966 86.00851019 -17.96793548 82.69346819 -17.97363281 78.92822266 C-17.97859772 78.14577682 -17.98356262 77.36333099 -17.98867798 76.55717468 C-18.00328728 73.96779502 -18.01009931 71.37847661 -18.015625 68.7890625 C-18.02137718 66.98928831 -18.02713491 65.18951414 -18.03289795 63.38973999 C-18.04340423 59.61529251 -18.04924943 55.8408663 -18.05273438 52.06640625 C-18.05822031 47.23197628 -18.08225199 42.39782778 -18.11070633 37.5634861 C-18.12933697 33.84542012 -18.13453852 30.12742192 -18.13607025 26.4093132 C-18.13909602 24.62713455 -18.147122 22.84495707 -18.16025543 21.06282425 C-18.17732603 18.56852079 -18.17543345 16.07490471 -18.16894531 13.58056641 C-18.1781601 12.8458461 -18.18737488 12.11112579 -18.1968689 11.35414124 C-18.16085615 6.9305318 -17.49833501 4.16181365 -14.8125 0.625 C-10.47280312 -2.75031979 -4.68594776 -2.29090779 0 0 Z " fill="#A446EA" transform="translate(329.8125,74.375)"/>
<path d="M0 0 C0.98484375 0.00902344 1.9696875 0.01804687 2.984375 0.02734375 C4.10585937 0.04474609 4.10585937 0.04474609 5.25 0.0625 C4.76853516 0.91521484 4.76853516 0.91521484 4.27734375 1.78515625 C3.19087073 4.19357362 2.88991186 5.87255023 2.8125 8.5 C2.77253906 9.24121094 2.73257813 9.98242188 2.69140625 10.74609375 C3.55087457 14.31018264 5.4696325 15.73440561 8.25 18.0625 C10.68336954 19.4526005 13.036272 20.6912941 15.5625 21.875 C16.25601563 22.21265381 16.94953125 22.55030762 17.6640625 22.89819336 C20.57612717 24.3152014 23.49942783 25.7076657 26.42724609 27.09179688 C38.18712468 32.66550326 49.16575687 38.09277892 53.99609375 51.06640625 C56.36614414 59.41879073 55.60399766 67.11415838 52.25 75.0625 C47.69819257 83.06006819 40.6794513 88.95241461 31.8359375 91.60546875 C26.67689583 92.51726312 21.46580531 92.28016112 16.25 92.0625 C16.745 91.2375 17.24 90.4125 17.75 89.5625 C19.65649301 85.11401631 19.86046838 82.86993848 19.25 78.0625 C15.37645716 73.14163743 10.84343261 71.27891615 5.1875 69.0625 C3.92039185 68.54550537 3.92039185 68.54550537 2.62768555 68.01806641 C-1.02996457 66.52846876 -4.70245635 65.08100624 -8.3828125 63.6484375 C-18.62011409 59.59017216 -25.4558548 54.9367774 -30.75 45.0625 C-34.25303547 36.46414021 -33.6672896 27.27543133 -30.19921875 18.76953125 C-25.21934874 9.46750991 -17.7811873 3.62599009 -7.81640625 0.4453125 C-5.1811112 -0.04288961 -2.6782105 -0.03188346 0 0 Z " fill="#B51A57" transform="translate(49.75,75.9375)"/>
<path d="M0 0 C2.8100346 1.79363911 4.50940468 3.01880935 6 6 C6.30614901 11.67074036 5.6939153 15.89216868 3.83203125 21.3203125 C3.60086105 22.00550964 3.36969086 22.69070679 3.1315155 23.39666748 C2.37021809 25.64363223 1.59178885 27.88421798 0.8125 30.125 C0.27310769 31.70165046 -0.26528577 33.27864295 -0.80273438 34.85595703 C-1.93721677 38.18014673 -3.07869018 41.50183383 -4.22412109 44.82226562 C-5.72885374 49.19450375 -7.2036174 53.57618253 -8.66731262 57.96231079 C-9.82487167 61.43060952 -10.9899511 64.89635638 -12.15615845 68.36175537 C-12.7153189 70.02712372 -13.27197158 71.69333633 -13.82601929 73.3604126 C-14.60468389 75.69896655 -15.39468983 78.03339744 -16.1875 80.3671875 C-16.5259771 81.39619171 -16.5259771 81.39619171 -16.87129211 82.44598389 C-18.83008605 88.14984373 -20.9437849 92.75014376 -26.1875 95.9375 C-30.84026345 97.23417178 -34.36344631 97.36472146 -39 96 C-47.82520196 90.38396239 -50.03662017 74.89194422 -52.875 65.4375 C-53.19774902 64.37813232 -53.52049805 63.31876465 -53.85302734 62.22729492 C-54.1464502 61.22287354 -54.43987305 60.21845215 -54.7421875 59.18359375 C-55.0088623 58.28181396 -55.27553711 57.38003418 -55.55029297 56.45092773 C-56.03205485 53.8252993 -56.00663002 52.45773338 -55 50 C-53.72485352 48.53613281 -53.72485352 48.53613281 -52.12890625 47.203125 C-51.26749023 46.47802734 -51.26749023 46.47802734 -50.38867188 45.73828125 C-49.78603516 45.24714844 -49.18339844 44.75601563 -48.5625 44.25 C-47.96373047 43.74339844 -47.36496094 43.23679688 -46.74804688 42.71484375 C-42.2772174 39 -42.2772174 39 -40 39 C-39.79318604 39.7520874 -39.58637207 40.5041748 -39.37329102 41.27905273 C-38.43981046 44.66616372 -37.50122632 48.0518393 -36.5625 51.4375 C-36.07426758 53.21350586 -36.07426758 53.21350586 -35.57617188 55.02539062 C-35.26357422 56.15009766 -34.95097656 57.27480469 -34.62890625 58.43359375 C-34.34088135 59.47572021 -34.05285645 60.51784668 -33.75610352 61.59155273 C-33.22689808 63.92738407 -33.22689808 63.92738407 -32 65 C-31.79590515 64.29922333 -31.5918103 63.59844666 -31.38153076 62.87643433 C-29.45052517 56.25299795 -27.50960298 49.6325398 -25.55767441 43.01524162 C-24.5546588 39.61361121 -23.55542755 36.21096588 -22.56494141 32.80566406 C-21.4244503 28.88527177 -20.26734132 24.96995405 -19.109375 21.0546875 C-18.75816589 19.83884979 -18.40695679 18.62301208 -18.04510498 17.37033081 C-12.26819264 -2.00882686 -12.26819264 -2.00882686 0 0 Z " fill="#A546E5" transform="translate(241,73)"/>
<path d="M0 0 C4.86351721 3.06221454 6.57735293 5.53104429 8 11 C8.18323672 13.443907 8.26581697 15.89641727 8.2746582 18.34716797 C8.2823246 19.41185303 8.2823246 19.41185303 8.29014587 20.49804688 C8.30397285 22.82951441 8.30309021 25.160684 8.30078125 27.4921875 C8.30467226 29.12354643 8.30900776 30.75490436 8.31376648 32.38626099 C8.32121408 35.80067228 8.32094824 39.21498015 8.31567383 42.62939453 C8.30988419 46.98930037 8.32680489 51.34878071 8.3500185 55.70861626 C8.36480309 59.07681727 8.36562108 62.44491696 8.36250877 65.81314468 C8.36301971 67.4197893 8.36821449 69.02643992 8.37832069 70.63305283 C8.48048546 89.14660538 8.48048546 89.14660538 3.25 94.9375 C-1.12133154 97.0017399 -4.58021947 97.47326018 -9.1875 95.9375 C-12.57569576 93.60340959 -14.01418005 91.60523148 -16 88 C-16.37486971 85.24737189 -16.53916798 82.90416611 -16.50170898 80.16210938 C-16.50711197 79.4003389 -16.51251495 78.63856842 -16.51808167 77.85371399 C-16.53053055 75.34999042 -16.51410448 72.8474255 -16.49609375 70.34375 C-16.49624883 68.59549906 -16.49773927 66.84724778 -16.50050354 65.09899902 C-16.50188581 61.44068138 -16.48935849 57.7827566 -16.46655273 54.12451172 C-16.43816855 49.44376579 -16.44090769 44.76367232 -16.45364285 40.08287811 C-16.46060987 36.47453271 -16.45279907 32.86633713 -16.44038582 29.25801086 C-16.43588126 27.53250199 -16.43552579 25.80697697 -16.43945122 24.08146667 C-16.44237354 21.66660796 -16.42580864 19.25263693 -16.40405273 16.83789062 C-16.40855438 16.13018021 -16.41305603 15.42246979 -16.41769409 14.6933136 C-16.34889764 10.07919456 -15.40910729 6.92778769 -13 3 C-9.14679052 -0.30275099 -4.92568522 -1.02176641 0 0 Z " fill="#A548EA" transform="translate(280,73)"/>
<path d="M0 0 C7.68523849 6.2879224 11.06871261 12.56455315 12.08480835 22.53546143 C12.28544663 26.28754285 12.39908202 30.0325134 12.48046875 33.7890625 C12.51984356 35.16485966 12.56041753 36.54062296 12.60212708 37.91635132 C12.7077029 41.5031519 12.79719449 45.09017227 12.88311768 48.67749023 C12.97404371 52.35167744 13.08048593 56.02541337 13.18554688 59.69921875 C13.38871813 66.88246298 13.57486613 74.06601163 13.75 81.25 C11.11 81.25 8.47 81.25 5.75 81.25 C5.09 77.62 4.43 73.99 3.75 70.25 C2.0175 72.10625 2.0175 72.10625 0.25 74 C-7.04909494 81.2733939 -15.41568851 84.23224098 -25.625 84.5625 C-33.58917215 84.39680987 -41.0721373 82.44502091 -47.25 77.25 C-52.44284978 71.64521742 -55.11678507 66.46203419 -55.3125 58.8046875 C-54.92685136 50.92299346 -51.83136356 45.51890766 -46.25 40.0625 C-35.44443088 31.38960899 -21.96877503 31.09419308 -8.8125 31.1875 C-6.99975586 31.19426758 -6.99975586 31.19426758 -5.15039062 31.20117188 C-2.18354211 31.21289855 0.7832027 31.22931104 3.75 31.25 C3.26346406 19.01540261 3.26346406 19.01540261 -2.4375 8.5 C-9.91999384 2.51400493 -17.98013783 2.32915276 -27.25 3.25 C-34.20963659 4.88034308 -39.69992808 7.80994246 -45.25 12.25 C-46.9 10.6 -48.55 8.95 -50.25 7.25 C-38.09994373 -6.92506565 -15.81853106 -8.51767057 0 0 Z M-42.87109375 46.8046875 C-46.8044428 51.28402551 -47.61174974 55.07757336 -47.52734375 60.8359375 C-46.89726208 66.32031038 -44.61091325 70.10078437 -40.4375 73.625 C-32.24599209 77.80106285 -23.45049056 78.67429529 -14.5625 76.1875 C-6.37460168 73.02366094 -1.78265101 67.37960471 1.83984375 59.58203125 C3.69698869 54.8235955 3.8749981 50.58638369 3.8125 45.5 C3.80798828 44.80261719 3.80347656 44.10523438 3.79882812 43.38671875 C3.7871002 41.67444197 3.76916653 39.96220967 3.75 38.25 C-21.20439574 36.66269833 -21.20439574 36.66269833 -42.87109375 46.8046875 Z " fill="#FFFFFF" transform="translate(895.25,79.75)"/>
<path d="M0 0 C8.80815596 6.92963929 13.89093929 16.10438598 16.47265625 26.9453125 C16.75859437 29.70211041 16.80656441 32.42515932 16.78515625 35.1953125 C16.7809668 35.93966553 16.77677734 36.68401855 16.77246094 37.45092773 C16.54194437 48.78179813 13.08955618 59.74136957 5.34765625 68.21875 C-5.17817594 77.91128715 -17.84259907 81.70068746 -31.953125 81.265625 C-43.55173857 80.22618641 -54.6960224 75.94326826 -62.7109375 67.296875 C-70.71519123 56.93437878 -74.96432531 43.0198208 -73.52734375 29.9453125 C-71.87786119 18.91904171 -66.90545437 9.26914575 -58.75 1.578125 C-41.54076921 -11.06415702 -17.75795531 -12.21338509 0 0 Z M-56.5390625 10.0546875 C-64.23525824 19.41274522 -66.60937384 29.96678224 -65.52734375 41.9453125 C-63.17310719 53.38017578 -58.25912443 62.29295938 -48.52734375 68.9453125 C-38.02580461 74.60276818 -27.29559102 75.5481004 -15.77734375 72.3203125 C-5.74687956 68.89293764 0.75723291 62.97256686 5.6953125 53.6328125 C10.66050217 42.52787216 10.22452876 31.39263156 6.47265625 19.9453125 C2.12874633 10.82579975 -5.21015131 4.49379139 -14.44921875 0.671875 C-28.9336234 -4.39222136 -45.88550472 -1.11603328 -56.5390625 10.0546875 Z " fill="#FFFFFF" transform="translate(677.52734375,83.0546875)"/>
<path d="M0 0 C7.30901796 5.44593495 11.55937967 11.88587138 13 21 C13.61726816 30.1047053 11.57726496 38.05034814 5.7265625 45.18359375 C-0.50406885 51.73844348 -7.33591948 55.71232097 -16.4609375 56.17578125 C-19.64732637 56.18614911 -22.81664891 56.13284464 -26 56 C-25.505 55.175 -25.01 54.35 -24.5 53.5 C-22.59350699 49.05151631 -22.38953162 46.80743848 -23 42 C-26.27327985 37.53643656 -29.96714432 35.87498545 -35 34 C-32.18639173 30.48298966 -29.70527064 27.59368945 -26 25 C-25.46375 24.443125 -24.9275 23.88625 -24.375 23.3125 C-23 22 -23 22 -21 22 C-21 21.34 -21 20.68 -21 20 C-20.34 20 -19.68 20 -19 20 C-18.67 19.34 -18.34 18.68 -18 18 C-15.9375 16.875 -15.9375 16.875 -14 16 C-14 15.34 -14 14.68 -14 14 C-13.360625 13.896875 -12.72125 13.79375 -12.0625 13.6875 C-11.381875 13.460625 -10.70125 13.23375 -10 13 C-9.67 12.01 -9.34 11.02 -9 10 C-8.34 10 -7.68 10 -7 10 C-7 9.34 -7 8.68 -7 8 C-6.34 8 -5.68 8 -5 8 C-4.67 7.34 -4.34 6.68 -4 6 C-3.319375 5.34 -2.63875 4.68 -1.9375 4 C0.23193174 2.22468387 0.23193174 2.22468387 0 0 Z " fill="#B41D65" transform="translate(92,112)"/>
<path d="M0 0 C3.17954505 2.57765586 5.14277663 4.78008335 6.8359375 8.5390625 C5.0859375 10.1015625 5.0859375 10.1015625 2.8359375 11.5390625 C-1.28889211 11.05477076 -3.3099669 8.78696987 -6.1875 6.01171875 C-12.255605 1.49062076 -19.95898039 1.8097676 -27.1640625 2.5390625 C-31.60075132 3.93758398 -35.09725009 6.02020549 -38.1640625 9.5390625 C-39.88517693 14.70240579 -39.67245695 19.61442638 -38.2890625 24.8515625 C-33.88354785 30.42324279 -26.47699791 31.46684246 -19.89233398 33.34082031 C1.03797018 39.31238951 1.03797018 39.31238951 6.8359375 49.5390625 C8.8517256 55.58642679 8.95671522 62.96347158 6.3359375 68.8515625 C2.44708121 75.4475025 -3.86389761 80.38491548 -11.1640625 82.5390625 C-23.32023243 84.43746699 -33.68157155 83.21291507 -44.1640625 76.5390625 C-46.8120329 74.45984631 -49.37991739 72.41817031 -51.1640625 69.5390625 C-51 67.40234375 -51 67.40234375 -50.1640625 65.5390625 C-47.6015625 64.2890625 -47.6015625 64.2890625 -45.1640625 63.5390625 C-44.6278125 64.2815625 -44.0915625 65.0240625 -43.5390625 65.7890625 C-38.11425391 72.07041982 -31.14312973 74.71818871 -23.05859375 75.828125 C-16.44544865 76.11852259 -10.464238 74.33919985 -5.2890625 70.2890625 C-1.91720014 65.92547592 0.20514251 62.00516889 -0.2265625 56.4140625 C-1.24772374 52.19326272 -2.15966215 50.60728181 -5.1640625 47.5390625 C-7.60097759 46.36252105 -9.80903762 45.44896782 -12.3515625 44.6015625 C-13.04556152 44.35414307 -13.73956055 44.10672363 -14.45458984 43.85180664 C-18.21499345 42.51854204 -21.99969964 41.25995109 -25.78515625 40 C-26.53837158 39.74468506 -27.29158691 39.48937012 -28.06762695 39.22631836 C-29.50841041 38.74004009 -30.95344029 38.26610075 -32.40307617 37.80688477 C-38.07098706 35.90341536 -42.44530218 33.39753554 -45.625 28.109375 C-48.4086335 20.66256059 -49.23479006 14.88023949 -46.140625 7.390625 C-43.0498551 1.53052526 -37.12632414 -2.22666182 -31.1640625 -4.7109375 C-20.58615054 -7.28520811 -9.09077207 -6.13709161 0 0 Z " fill="#FFFFFF" transform="translate(579.1640625,80.4609375)"/>
<path d="M0 0 C2.01388555 1.68441552 3.42473497 3.44169997 4.91015625 5.59765625 C3.59015625 6.91765625 2.27015625 8.23765625 0.91015625 9.59765625 C-3.12499962 8.21057142 -6.41661344 6.1825013 -9.9296875 3.81640625 C-17.50510345 -0.45760781 -26.58900005 -0.72857456 -34.94140625 1.28515625 C-45.55191506 5.22714095 -51.94579404 11.66922908 -57.125 21.578125 C-60.82510697 30.47559154 -60.49005669 42.58451743 -57.46484375 51.66015625 C-53.03792875 61.84051828 -46.19902915 68.38600513 -35.83984375 72.47265625 C-25.94099195 75.35263578 -16.25588536 74.07514697 -7.08984375 69.59765625 C-5.92426067 68.85702534 -4.77438867 68.09022348 -3.65234375 67.28515625 C-1.08984375 65.59765625 -1.08984375 65.59765625 1.16015625 65.59765625 C3.40966574 66.88309025 3.84810017 68.28721846 4.91015625 70.59765625 C-4.85116211 79.93456947 -15.31452845 81.93780119 -28.5546875 81.8125 C-39.57357132 81.14284408 -50.60981749 75.76095414 -58.08984375 67.59765625 C-66.5560455 56.40436067 -69.50670779 43.44494601 -68.08984375 29.59765625 C-65.79855821 17.61247034 -60.41811601 7.16200846 -50.34765625 0.02734375 C-34.50167257 -10.00661824 -15.70460933 -10.68825499 0 0 Z " fill="#FFFFFF" transform="translate(781.08984375,82.40234375)"/>
<path d="M0 0 C0.98484375 0.00902344 1.9696875 0.01804687 2.984375 0.02734375 C4.10585937 0.04474609 4.10585937 0.04474609 5.25 0.0625 C4.76853516 0.91521484 4.76853516 0.91521484 4.27734375 1.78515625 C2.60486392 5.49259253 2.52223093 9.08117509 3.25 13.0625 C5.583492 15.89661155 5.583492 15.89661155 8.25 18.0625 C9.0625 20.375 9.0625 20.375 9.25 22.0625 C6.01206406 24.81474555 2.75298751 27.44264356 -0.6875 29.9375 C-3.51562044 32.02620727 -5.99200564 34.22476126 -8.4375 36.75 C-10.99552697 39.38395014 -13.36479844 41.51497929 -16.75 43.0625 C-17.41 42.7325 -18.07 42.4025 -18.75 42.0625 C-18.42 43.0525 -18.09 44.0425 -17.75 45.0625 C-20.99509304 47.10227277 -24.15608886 48.72761872 -27.75 50.0625 C-28.4009259 48.81514433 -29.04551669 47.56448168 -29.6875 46.3125 C-30.04714844 45.61640625 -30.40679688 44.9203125 -30.77734375 44.203125 C-34.02663997 37.05206343 -33.61978878 28.88332411 -31.3125 21.5 C-27.55495874 12.28413565 -20.99753816 5.96839086 -12.01171875 1.90234375 C-7.86074832 0.3609644 -4.44503188 -0.05291705 0 0 Z " fill="#BE0714" transform="translate(49.75,75.9375)"/>
<path d="M0 0 C2.8100346 1.79363911 4.50940468 3.01880935 6 6 C6.80209169 13.86049858 4.20728067 20.56567654 1.6875 27.9375 C1.28337891 29.18080078 0.87925781 30.42410156 0.46289062 31.70507812 C0.06650391 32.88392578 -0.32988281 34.06277344 -0.73828125 35.27734375 C-1.28029175 36.88984009 -1.28029175 36.88984009 -1.83325195 38.53491211 C-2.41079224 39.75513062 -2.41079224 39.75513062 -3 41 C-4.485 41.495 -4.485 41.495 -6 42 C-7.39712274 43.95597184 -8.73779907 45.95436401 -10 48 C-10.66 47.67 -11.32 47.34 -12 47 C-12.7425 47.7425 -13.485 48.485 -14.25 49.25 C-15.1575 50.1575 -16.065 51.065 -17 52 C-17.680625 52.721875 -18.36125 53.44375 -19.0625 54.1875 C-20.99842076 55.99852265 -22.6357315 56.853688 -25 58 C-26.68889872 59.3050581 -28.3603279 60.63360658 -30 62 C-28.72578413 55.08143768 -27.07999142 48.35835874 -25.1015625 41.609375 C-24.82533051 40.66112854 -24.54909851 39.71288208 -24.26449585 38.73590088 C-23.68355102 36.74870476 -23.10023918 34.7621992 -22.51464844 32.77636719 C-21.62415487 29.74712507 -20.74939686 26.71360933 -19.875 23.6796875 C-19.30564643 21.7393017 -18.73536584 19.79918762 -18.1640625 17.859375 C-17.90662262 16.95926697 -17.64918274 16.05915894 -17.38394165 15.1317749 C-14.64731377 5.97576355 -11.09447016 -1.81663839 0 0 Z " fill="#A83CCB" transform="translate(241,73)"/>
<path d="M0 0 C2.31 0 4.62 0 7 0 C7 44.88 7 89.76 7 136 C4.69 136 2.38 136 0 136 C0 91.12 0 46.24 0 0 Z " fill="#FFFFFF" transform="translate(939,25)"/>
<path d="M0 0 C8.415 3.96 8.415 3.96 17 8 C17 11 17 11 15.5390625 12.53515625 C14.90742187 13.03917969 14.27578125 13.54320313 13.625 14.0625 C11.64868307 15.66063282 9.80006019 17.19993981 8 19 C6.88066498 19.96494398 5.7550367 20.92261099 4.625 21.875 C2.58226431 23.60899924 0.68334665 25.32570059 -1.1875 27.25 C-3 29 -3 29 -4.8671875 29.8984375 C-7.24504769 31.12656309 -8.95742569 32.57920983 -10.9375 34.375 C-11.63488281 34.99117187 -12.33226563 35.60734375 -13.05078125 36.2421875 C-14.5977233 37.63722542 -16.1165735 39.06340333 -17.625 40.5 C-20 42 -20 42 -22.8125 42.125 C-27.77721707 40.37274692 -32.60388935 37.48737436 -35.234375 32.80078125 C-35.48703125 32.20652344 -35.7396875 31.61226562 -36 31 C-33.47211993 28.20127563 -31.79588866 26.54226981 -28 26 C-28 25.01 -28 24.02 -28 23 C-27.38125 22.87625 -26.7625 22.7525 -26.125 22.625 C-23.80879168 22.12802644 -23.80879168 22.12802644 -22 20 C-20.2630881 18.49746657 -18.50854195 17.01693284 -16.75390625 15.53515625 C-14.99685273 14.03669375 -14.99685273 14.03669375 -13.46484375 12.43359375 C-12 11 -12 11 -9 9 C-8.34 8.01 -7.68 7.02 -7 6 C-6.360625 5.87625 -5.72125 5.7525 -5.0625 5.625 C-2.25473925 5.02616313 -2.25473925 5.02616313 0 0 Z " fill="#B9133E" transform="translate(59,95)"/>
<path d="M0 0 C5.43004516 4.02630284 6.87367187 9.24437791 8.8125 15.4375 C9.12380859 16.36626953 9.43511719 17.29503906 9.75585938 18.25195312 C12.62822461 27.12156445 12.62822461 27.12156445 12 32 C10.125 33.875 10.125 33.875 8 35 C7.34 35 6.68 35 6 35 C5.67 35.66 5.34 36.32 5 37 C3.67395893 38.23913352 2.31546954 39.44388326 0.9375 40.625 C0.20402344 41.25664063 -0.52945313 41.88828125 -1.28515625 42.5390625 C-1.85105469 43.02117187 -2.41695312 43.50328125 -3 44 C-6.15077113 42.42461444 -6.28170465 39.82174482 -7.3828125 36.55078125 C-7.60194305 35.90054489 -7.82107361 35.25030853 -8.04684448 34.58036804 C-8.5094259 33.20041916 -8.96815176 31.81917283 -9.42333984 30.43676758 C-10.11775909 28.33442176 -10.8294317 26.23850063 -11.54296875 24.14257812 C-11.9906472 22.7998334 -12.43729455 21.45674437 -12.8828125 20.11328125 C-13.28902832 18.89423096 -13.69524414 17.67518066 -14.11376953 16.41918945 C-15.1251223 12.51726232 -15.98862267 8.79989701 -13.9765625 5.13671875 C-9.80112628 0.65958916 -6.28577115 -1.51764565 0 0 Z " fill="#B41F66" transform="translate(125,73)"/>
<path d="M0 0 C2.74902129 2.35630396 4.44185894 4.70698473 6.1875 7.875 C6.1875 9.195 6.1875 10.515 6.1875 11.875 C5.5275 11.875 4.8675 11.875 4.1875 11.875 C4.1875 12.535 4.1875 13.195 4.1875 13.875 C3.5275 13.875 2.8675 13.875 2.1875 13.875 C2.1875 14.535 2.1875 15.195 2.1875 15.875 C1.548125 16.16375 0.90875 16.4525 0.25 16.75 C-1.96456079 17.70323451 -1.96456079 17.70323451 -2.8125 19.875 C-3.4725 19.875 -4.1325 19.875 -4.8125 19.875 C-4.8125 20.535 -4.8125 21.195 -4.8125 21.875 C-5.39 22.1225 -5.9675 22.37 -6.5625 22.625 C-9.14710369 24.06089094 -10.75292535 25.75484963 -12.8125 27.875 C-17.6710261 32.05559223 -22.73759505 35.9616844 -27.8125 39.875 C-29.33564616 35.92680459 -28.2548834 33.05527092 -27.08203125 29.09765625 C-26.89033859 28.44929306 -26.69864594 27.80092987 -26.50114441 27.13291931 C-26.09326004 25.76394833 -25.68024079 24.3964982 -25.26245117 23.03051758 C-24.62957193 20.95251155 -24.01988789 18.86866932 -23.41210938 16.78320312 C-23.0118038 15.45010351 -22.61015398 14.11740667 -22.20703125 12.78515625 C-21.84456299 11.57996338 -21.48209473 10.37477051 -21.10864258 9.13305664 C-19.49257686 5.07082325 -17.52941802 2.00034626 -13.83984375 -0.41796875 C-9.25097473 -2.01832577 -4.47538957 -1.79015583 0 0 Z " fill="#B02885" transform="translate(185.8125,74.125)"/>
<path d="M0 0 C3 0.125 3 0.125 4 1.125 C4.09507821 3.71139038 4.12556376 6.2709856 4.11352539 8.85766602 C4.11367142 9.6673584 4.11381744 10.47705078 4.1139679 11.3112793 C4.11326854 14.00051508 4.1054751 16.68968249 4.09765625 19.37890625 C4.09579215 21.23835716 4.09436821 23.09780856 4.09336853 24.95726013 C4.08954271 29.86129096 4.07971188 34.76529236 4.06866455 39.66931152 C4.05845181 44.66951092 4.05387121 49.66971506 4.04882812 54.66992188 C4.03808967 64.48829421 4.02101248 74.30664466 4 84.125 C1.36 84.125 -1.28 84.125 -4 84.125 C-4.02312312 73.32041915 -4.04091493 62.51584414 -4.05181217 51.71124363 C-4.05704107 46.6947753 -4.06413883 41.67832385 -4.07543945 36.66186523 C-4.0862681 31.82490306 -4.09227679 26.98795716 -4.09487724 22.15098381 C-4.09673153 20.30131715 -4.10035222 18.45165143 -4.10573006 16.60199165 C-4.1129402 14.02052986 -4.11399095 11.43913618 -4.11352539 8.85766602 C-4.11712067 8.08514999 -4.12071594 7.31263397 -4.12442017 6.51670837 C-4.11195461 0.17133144 -4.11195461 0.17133144 0 0 Z " fill="#FFFFFF" transform="translate(810,76.875)"/>
<path d="M0 0 C4.29235318 3.79324234 6.45462208 6.54108641 7.1875 12.3125 C6.93307477 16.8921542 5.36906803 19.6787846 2.6875 23.375 C-1.05248476 26.40742008 -4.52828555 27.21282324 -9.3125 27.375 C-13.51346292 26.49389916 -16.52376492 25.10146652 -19.6875 22.1875 C-21.73593707 18.64212815 -23.0616527 15.49046356 -23.3125 11.375 C-21.80032039 6.12684725 -19.45656689 2.89745685 -15.3125 -0.625 C-9.94299295 -2.41483568 -5.11514667 -2.50931724 0 0 Z " fill="#FFFFFF" transform="translate(41.3125,142.625)"/>
<path d="M0 0 C3.01784991 1.75607646 5.41468217 3.82936435 7 7 C7.0716735 9.55157655 7.09308442 12.07472971 7.0625 14.625 C7.05798828 15.33140625 7.05347656 16.0378125 7.04882812 16.765625 C7.03703875 18.51045275 7.01910324 20.255237 7 22 C6.34 22 5.68 22 5 22 C4.21625 22.78375 3.4325 23.5675 2.625 24.375 C0 27 0 27 -2.1875 28 C-4.2647939 28.89645356 -4.2647939 28.89645356 -5 31.5 C-6 34 -6 34 -7.8125 35.0625 C-8.534375 35.371875 -9.25625 35.68125 -10 36 C-11.67423683 37.32381517 -13.34211215 38.65576661 -15 40 C-15.33 40 -15.66 40 -16 40 C-16.07451364 35.6950223 -16.12877223 31.39039266 -16.16479492 27.08496094 C-16.17982196 25.62232925 -16.20024955 24.15974218 -16.22631836 22.69726562 C-16.26297267 20.5871272 -16.27978676 18.47758774 -16.29296875 16.3671875 C-16.3086792 15.09987793 -16.32438965 13.83256836 -16.34057617 12.52685547 C-15.87502157 7.70577894 -14.51609946 4.29951382 -10.8125 1.125 C-7.13520052 -0.34591979 -3.86124785 -0.82956497 0 0 Z " fill="#A640DA" transform="translate(280,73)"/>
<path d="M0 0 C4.47036594 3.69291099 6.72487983 6.56977184 7.375 12.3125 C6.92509775 16.73653879 5.83305225 19.58445102 3 23 C-1.65976863 26.35936808 -6.42643385 26.88897381 -12 26 C-16.91624028 23.63292134 -19.18602527 21.13959507 -21 16 C-21.559524 10.77777599 -20.9224897 7.38373454 -18 3 C-11.88868498 -1.81103523 -7.35338586 -2.9822877 0 0 Z " fill="#B9143F" transform="translate(93,76)"/>
<path d="M0 0 C0.99 0.33 1.98 0.66 3 1 C3.50843429 10.15181714 1.61830243 18.00031477 -4.2734375 25.18359375 C-10.50406885 31.73844348 -17.33591948 35.71232097 -26.4609375 36.17578125 C-29.64732637 36.18614911 -32.81664891 36.13284464 -36 36 C-35.525625 35.13375 -35.05125 34.2675 -34.5625 33.375 C-33.06765105 30.14612626 -32.41781687 27.50966174 -32 24 C-31.34 24.66 -30.68 25.32 -30 26 C-29.45730469 25.50628906 -28.91460937 25.01257813 -28.35546875 24.50390625 C-27.64003906 23.86324219 -26.92460938 23.22257812 -26.1875 22.5625 C-25.47980469 21.92441406 -24.77210937 21.28632813 -24.04296875 20.62890625 C-22 19 -22 19 -19 18 C-18.26676204 15.98491642 -18.26676204 15.98491642 -18 14 C-17.34 14 -16.68 14 -16 14 C-11.93951016 11.96975508 -9.7710675 9.53549991 -7 6 C-6.34 6 -5.68 6 -5 6 C-5 5.34 -5 4.68 -5 4 C-4.01 3.67 -3.02 3.34 -2 3 C-1.34 2.01 -0.68 1.02 0 0 Z " fill="#B0277F" transform="translate(102,132)"/>
<path d="M0 0 C0.33 0 0.66 0 1 0 C1.08636719 0.59167969 1.17273437 1.18335937 1.26171875 1.79296875 C2.27608993 7.49764334 3.49437236 10.3243564 8 14 C6.6297538 17.23184332 5.24964688 18.82544329 2.375 20.8125 C-0.55965849 22.91549535 -3.30980994 25.09158874 -6 27.5 C-9.82895858 30.91111588 -13.85228996 33.98849776 -18 37 C-18.66 36.67 -19.32 36.34 -20 36 C-19.67 36.99 -19.34 37.98 -19 39 C-22.24509304 41.03977277 -25.40608886 42.66511872 -29 44 C-29.69965443 42.73581754 -30.38434763 41.46334598 -31.0625 40.1875 C-31.44535156 39.47980469 -31.82820313 38.77210937 -32.22265625 38.04296875 C-33 36 -33 36 -32 33 C-30.515 32.505 -30.515 32.505 -29 32 C-29 31.34 -29 30.68 -29 30 C-27.70794169 28.94721175 -26.36365283 27.95824253 -25 27 C-24.13375 26.29875 -23.2675 25.5975 -22.375 24.875 C-20 23 -20 23 -18 22 C-17.27306096 20.02111039 -16.60183749 18.02045442 -16 16 C-15.401875 16.226875 -14.80375 16.45375 -14.1875 16.6875 C-13.465625 16.790625 -12.74375 16.89375 -12 17 C-10.31267956 15.72943475 -10.31267956 15.72943475 -9 14 C-5 10 -5 10 -1 6 C-0.60235737 4.01178687 -0.26224651 2.01055661 0 0 Z " fill="#BC0B24" transform="translate(51,82)"/>
<path d="M0 0 C1.0441107 3.34736221 2.0559656 6.70366569 3.0625 10.0625 C3.35705078 11.00544922 3.65160156 11.94839844 3.95507812 12.91992188 C5.58301995 18.41661957 6.36051112 22.39469419 5 28 C4.34 28 3.68 28 3 28 C2.34 29.32 1.68 30.64 1 32 C0.01 32 -0.98 32 -2 32 C-2.3403125 32.928125 -2.3403125 32.928125 -2.6875 33.875 C-4.38277796 36.61973575 -6.02945954 36.93463654 -9 38 C-10.20409317 34.25512292 -11.38535051 30.50342524 -12.5625 26.75 C-12.90474609 25.68652344 -13.24699219 24.62304688 -13.59960938 23.52734375 C-13.91865234 22.50253906 -14.23769531 21.47773438 -14.56640625 20.421875 C-15.01415405 19.00793457 -15.01415405 19.00793457 -15.47094727 17.56542969 C-16.0291233 14.85877821 -16.06022933 13.53108717 -15 11 C-13.72485352 9.53613281 -13.72485352 9.53613281 -12.12890625 8.203125 C-11.26749023 7.47802734 -11.26749023 7.47802734 -10.38867188 6.73828125 C-9.4847168 6.00158203 -9.4847168 6.00158203 -8.5625 5.25 C-7.96373047 4.74339844 -7.36496094 4.23679687 -6.74804688 3.71484375 C-2.2772174 0 -2.2772174 0 0 0 Z " fill="#A83CCB" transform="translate(201,112)"/>
<path d="M0 0 C0.66 0.66 1.32 1.32 2 2 C-2.88392196 18.12651879 -2.88392196 18.12651879 -8.5625 21.6875 C-10.04125112 22.4591302 -11.52037493 23.23004695 -13 24 C-14.68528688 25.64783606 -16.35697047 27.31002677 -18 29 C-19.31836295 29.69580267 -20.64791086 30.37224433 -22 31 C-22.33 31.66 -22.66 32.32 -23 33 C-23.66 33 -24.32 33 -25 33 C-25.33 33.99 -25.66 34.98 -26 36 C-27.9375 38.1875 -27.9375 38.1875 -30 40 C-30.66 40 -31.32 40 -32 40 C-32.4125 40.78375 -32.825 41.5675 -33.25 42.375 C-35.44888887 45.6733333 -37.23110958 46.07871568 -41 47 C-41.99 43.7 -42.98 40.4 -44 37 C-41.09492679 34.57910566 -38.36852957 32.68426478 -35 31 C-34.67 30.34 -34.34 29.68 -34 29 C-33.01 28.5359375 -33.01 28.5359375 -32 28.0625 C-29.65391779 27.1108154 -29.65391779 27.1108154 -29 24 C-28.34 24.33 -27.68 24.66 -27 25 C-26.67 24.01 -26.34 23.02 -26 22 C-24.2578125 20.2109375 -24.2578125 20.2109375 -22.125 18.375 C-21.42632812 17.76398438 -20.72765625 17.15296875 -20.0078125 16.5234375 C-18 15 -18 15 -15 14 C-14.34 13.67 -13.68 13.34 -13 13 C-12.67 12.01 -12.34 11.02 -12 10 C-10.29825532 7.87281915 -9.15131507 7.05431823 -6.5625 6.125 C-3.35134666 4.71522536 -2.00571417 2.82285699 0 0 Z " fill="#A641DA" transform="translate(236,113)"/>
<path d="M0 0 C2.8100346 1.79363911 4.50940468 3.01880935 6 6 C6.625 9.1875 6.625 9.1875 6 13 C3.28879195 15.77244684 0.23626673 17.8816147 -3 20 C-5.95505672 21.82839838 -5.95505672 21.82839838 -7.9375 23.9375 C-9.8633574 25.8633574 -11.73560277 27.49040185 -14 29 C-14.66 29 -15.32 29 -16 29 C-16.33 30.32 -16.66 31.64 -17 33 C-17.66 33 -18.32 33 -19 33 C-19.33 33.66 -19.66 34.32 -20 35 C-20.66 35 -21.32 35 -22 35 C-20.88940466 28.22536841 -19.13320755 21.74201418 -17.125 15.1875 C-16.75834229 13.95132935 -16.75834229 13.95132935 -16.38427734 12.69018555 C-14.93113921 8.05458992 -13.45688769 4.56185392 -10 1 C-6.79826746 -0.60086627 -3.47422941 -0.49917089 0 0 Z " fill="#AA37B9" transform="translate(241,73)"/>
<path d="M0 0 C3.4375 1.3125 3.4375 1.3125 7 3 C7.495 4.485 7.495 4.485 8 6 C7.0409375 6.433125 7.0409375 6.433125 6.0625 6.875 C3.84793921 7.82823451 3.84793921 7.82823451 3 10 C2.34 10 1.68 10 1 10 C0.78472656 10.56589844 0.56945312 11.13179687 0.34765625 11.71484375 C-1.45280753 14.76780408 -3.7628141 16.40524529 -6.5625 18.5625 C-10.74776808 21.57852782 -10.74776808 21.57852782 -13 26 C-14.32443079 26.36711301 -15.65973695 26.69572406 -17 27 C-18.9261032 28.27991014 -18.9261032 28.27991014 -20.6875 29.875 C-21.28949219 30.38804687 -21.89148438 30.90109375 -22.51171875 31.4296875 C-24.24852438 33.04045149 -24.24852438 33.04045149 -25 36 C-25.99 36 -26.98 36 -28 36 C-28.95132813 36.29197266 -28.95132813 36.29197266 -29.921875 36.58984375 C-32.52121889 37.10287215 -33.82589324 36.57254448 -36.25 35.5625 C-37.30960938 35.13130859 -37.30960938 35.13130859 -38.390625 34.69140625 C-38.92171875 34.46324219 -39.4528125 34.23507813 -40 34 C-39.01 33.505 -39.01 33.505 -38 33 C-37.67 32.34 -37.34 31.68 -37 31 C-35.34421627 29.09584871 -33.92188422 27.95777525 -31.6875 26.75 C-29.15141626 25.09859663 -27.86656049 23.75510596 -26 21.4375 C-23.28733143 18.11051209 -23.28733143 18.11051209 -20.5625 17.0625 C-16.93260157 15.55742016 -15.16036464 12.90817174 -12.74609375 9.875 C-10.92483 7.91928054 -9.40318978 7.10084767 -7 6 C-6.34 5.34 -5.68 4.68 -5 4 C-3.34106818 2.65705519 -1.67523395 1.32255312 0 0 Z " fill="#B7164B" transform="translate(77,104)"/>
<path d="M0 0 C2.23131566 3.93884831 3.40233744 8.18683335 4.6875 12.5 C4.92533203 13.25925781 5.16316406 14.01851562 5.40820312 14.80078125 C5.62798828 15.53683594 5.84777344 16.27289063 6.07421875 17.03125 C6.37718872 18.02995117 6.37718872 18.02995117 6.6862793 19.04882812 C7.05538971 21.34449382 6.76428968 22.8159441 6 25 C4.58203125 26.52734375 4.58203125 26.52734375 2.8125 27.9375 C2.18601563 28.44410156 1.55953125 28.95070312 0.9140625 29.47265625 C0.28242188 29.97667969 -0.34921875 30.48070312 -1 31 C-2.10493682 31.95744526 -3.20917137 32.91570195 -4.3125 33.875 C-7 36 -7 36 -9 36 C-9.98397585 33.4392555 -10.96229967 30.87658508 -11.9375 28.3125 C-12.21529297 27.59126953 -12.49308594 26.87003906 -12.77929688 26.12695312 C-15.70225447 18.41457102 -15.70225447 18.41457102 -16 15 C-14 13 -14 13 -11.5625 11.0625 C-9.10076423 9.15674435 -9.10076423 9.15674435 -7.4375 7.4375 C-6 6 -6 6 -3.9375 4.5 C-1.7513633 2.97192336 -1.7513633 2.97192336 0 0 Z " fill="#AF2A8D" transform="translate(137,102)"/>
<path d="M0 0 C2.97 1.65 5.94 3.3 9 5 C7.77015151 8.68954546 7.28759381 8.35620309 4 10 C1.72751696 12.16163021 -0.43228083 14.3868633 -2.5625 16.6875 C-4 18 -4 18 -5.875 18.875 C-8.23741306 19.99234151 -8.23741306 19.99234151 -10.5 22.5 C-13 25 -13 25 -15.0625 26 C-17.80714782 27.41659242 -19.16648877 29.55531836 -21 32 C-23.19909405 34.19909405 -25.56070254 36.07423885 -28 38 C-31.40320742 36.98823563 -32.75725331 36.35156418 -34.8125 33.375 C-35.204375 32.59125 -35.59625 31.8075 -36 31 C-33.47211993 28.20127563 -31.79588866 26.54226981 -28 26 C-28 25.01 -28 24.02 -28 23 C-27.38125 22.87625 -26.7625 22.7525 -26.125 22.625 C-23.80879168 22.12802644 -23.80879168 22.12802644 -22 20 C-20.2630881 18.49746657 -18.50854195 17.01693284 -16.75390625 15.53515625 C-14.99685273 14.03669375 -14.99685273 14.03669375 -13.46484375 12.43359375 C-12 11 -12 11 -9 9 C-8.34 8.01 -7.68 7.02 -7 6 C-6.360625 5.87625 -5.72125 5.7525 -5.0625 5.625 C-2.7076185 5.14663188 -2.7076185 5.14663188 -1.25 2.4375 C-0.63125 1.2309375 -0.63125 1.2309375 0 0 Z " fill="#BA0F32" transform="translate(59,95)"/>
<path d="M0 0 C3.01090912 2.70209792 3.87374827 4.537077 4.9375 8.4375 C5.01037534 12.5913945 4.27287987 14.55149262 2 18 C-1.22323237 21.33834781 -4.43373643 21.8452114 -9 22 C-12.9171118 20.82486646 -15.25859351 19.86098819 -17.9375 16.75 C-19.29209532 13.24398857 -19.40009361 10.73420699 -19 7 C-17.32960956 3.32514103 -15.45118836 1.09162931 -12 -1 C-7.6444446 -2.43072298 -4.18071825 -1.72551205 0 0 Z " fill="#AA38BC" transform="translate(283,40)"/>
<path d="M0 0 C3.14344775 3.41679104 3.91750186 6.38010395 4 11 C2.25 13.4375 2.25 13.4375 0 15 C-0.99 15 -1.98 15 -3 15 C-3 15.66 -3 16.32 -3 17 C-5.78433735 20.01636546 -8.65659275 22.62725937 -12 25 C-13.91073996 26.38962906 -15.71466627 27.70814436 -17.3671875 29.3984375 C-19.15962397 31.15656897 -21.04858624 32.62679874 -23.0625 34.125 C-24.10083984 34.90230469 -24.10083984 34.90230469 -25.16015625 35.6953125 C-27 37 -27 37 -29 38 C-30.32 35.03 -31.64 32.06 -33 29 C-32.21625 28.4225 -31.4325 27.845 -30.625 27.25 C-28.19952756 25.17102363 -27.14305583 23.90959667 -26 21 C-25.34 21 -24.68 21 -24 21 C-23.67 20.34 -23.34 19.68 -23 19 C-22.38125 18.855625 -21.7625 18.71125 -21.125 18.5625 C-18.52113609 17.87324191 -17.78473455 16.9989027 -16 15 C-9 8 -9 8 -6.625 6.125 C-4.24956591 4.20202954 -2.11906799 2.19755199 0 0 Z " fill="#B22272" transform="translate(100,121)"/>
<path d="M0 0 C1.38923761 4.16771282 -0.00560407 7.26649445 -1.25 11.3125 C-1.46785156 12.05951172 -1.68570313 12.80652344 -1.91015625 13.57617188 C-3.89361602 20.18190484 -5.7685715 26.3424224 -12 30 C-16.54688488 31.2270706 -19.96422743 31.35781234 -24.4375 29.8125 C-27.0882536 27.93757672 -27.72174272 26.87161984 -29 24 C-28.21238281 23.33355469 -27.42476562 22.66710937 -26.61328125 21.98046875 C-26.0929834 21.54017334 -25.57268555 21.09987793 -25.03662109 20.64624023 C-23.87696282 19.66507934 -22.71712903 18.68412585 -21.55712891 17.70336914 C-18.48319678 15.10391157 -15.4122378 12.50110256 -12.34765625 9.890625 C-11.7652417 9.3953833 -11.18282715 8.9001416 -10.58276367 8.38989258 C-9.46335515 7.43787524 -8.34498926 6.48463029 -7.2277832 5.5300293 C-4.88055689 3.5359419 -2.56701905 1.71134603 0 0 Z " fill="#A937BB" transform="translate(167,139)"/>
<path d="M0 0 C3.22410993 2.40093293 4.69450034 3.94250118 5.8125 7.8125 C5.874375 8.534375 5.93625 9.25625 6 10 C5.38125 10.45375 4.7625 10.9075 4.125 11.375 C2.01445285 12.98894782 0.31120377 14.6048351 -1.33203125 16.69140625 C-1.82058594 17.30886719 -2.30914062 17.92632812 -2.8125 18.5625 C-3.29332031 19.18253906 -3.77414063 19.80257812 -4.26953125 20.44140625 C-6.43506796 22.39185579 -8.14873186 22.64661702 -11 23 C-15.97432339 11.76335878 -15.97432339 11.76335878 -15 7 C-11.16594681 0.98718596 -7.15980498 -1.22073303 0 0 Z " fill="#B61A54" transform="translate(125,73)"/>
<path d="M0 0 C1.485 0.495 1.485 0.495 3 1 C3.495 3.97 3.495 3.97 4 7 C3.34 7 2.68 7 2 7 C2 7.66 2 8.32 2 9 C1.34 9 0.68 9 0 9 C0 9.66 0 10.32 0 11 C-0.639375 11.28875 -1.27875 11.5775 -1.9375 11.875 C-4.15206079 12.82823451 -4.15206079 12.82823451 -5 15 C-5.66 15 -6.32 15 -7 15 C-7 15.66 -7 16.32 -7 17 C-7.5775 17.2475 -8.155 17.495 -8.75 17.75 C-11.33460369 19.18589094 -12.94042535 20.87984963 -15 23 C-19.8585261 27.18059223 -24.92509505 31.0866844 -30 35 C-31.04037715 32.29501942 -30.97529992 30.88448193 -30.359375 28.00390625 C-28.79293515 24.54243429 -27.28636164 23.17796685 -24.25 20.9375 C-22.91195312 19.92623047 -22.91195312 19.92623047 -21.546875 18.89453125 C-20.70640625 18.26933594 -19.8659375 17.64414063 -19 17 C-16.23092962 14.76560784 -13.51808448 12.51808448 -11 10 C-10.34 10.33 -9.68 10.66 -9 11 C-8.690625 10.1646875 -8.690625 10.1646875 -8.375 9.3125 C-7.03153247 7.05303189 -5.94842298 6.0001344 -3.9375 4.375 C-0.99175287 2.32880603 -0.99175287 2.32880603 0 0 Z " fill="#AE2B91" transform="translate(188,79)"/>
<path d="M0 0 C0.68320313 0.18304688 1.36640625 0.36609375 2.0703125 0.5546875 C3.875 1.125 3.875 1.125 5.875 2.125 C4.51695446 5.2464778 3.06124145 7.09458229 0.4375 9.25 C-0.15933594 9.74757813 -0.75617188 10.24515625 -1.37109375 10.7578125 C-2.90262306 11.95165495 -4.5092702 13.0478468 -6.125 14.125 C-6.599375 14.599375 -7.07375 15.07375 -7.5625 15.5625 C-9.31445887 17.31445887 -11.05223359 18.76474704 -13.125 20.125 C-14.115 20.125 -15.105 20.125 -16.125 20.125 C-17.68811512 15.43565463 -17.64821579 11.60744475 -16 6.9375 C-13.47316378 3.14724567 -10.51981371 0.94262327 -6.19140625 -0.53515625 C-3.82276433 -0.92470606 -2.30308418 -0.63925911 0 0 Z " fill="#BB1335" transform="translate(89.125,74.875)"/>
<path d="M0 0 C2.29645699 4.16588685 3.24376567 8.23302686 3 13 C1.1875 15.0625 1.1875 15.0625 -1 16 C-1.66 16 -2.32 16 -3 16 C-3.33 16.66 -3.66 17.32 -4 18 C-5.32604107 19.23913352 -6.68453046 20.44388326 -8.0625 21.625 C-9.16271484 22.57246094 -9.16271484 22.57246094 -10.28515625 23.5390625 C-10.85105469 24.02117187 -11.41695313 24.50328125 -12 25 C-12.66 24.67 -13.32 24.34 -14 24 C-14.6328125 21.93359375 -14.6328125 21.93359375 -15.125 19.4375 C-15.29257813 18.61121094 -15.46015625 17.78492187 -15.6328125 16.93359375 C-15.81457031 15.97646484 -15.81457031 15.97646484 -16 15 C-15.38125 14.566875 -14.7625 14.13375 -14.125 13.6875 C-11.7802755 12.00259517 -11.7802755 12.00259517 -10 9 C-7.93759216 6.66858245 -7.05784811 6.0192827 -4 5 C-3.34 4.01 -2.68 3.02 -2 2 C-1.34 1.34 -0.68 0.68 0 0 Z " fill="#B22373" transform="translate(134,92)"/>
<path d="M0 0 C1.32 0.33 2.64 0.66 4 1 C5.28902399 3.33857333 6.2915507 5.47047105 7.25 7.9375 C7.518125 8.58396484 7.78625 9.23042969 8.0625 9.89648438 C10 14.65621014 10 14.65621014 10 17 C10.66 17 11.32 17 12 17 C12.18755859 15.92298828 12.18755859 15.92298828 12.37890625 14.82421875 C12.99952976 12.00213825 13.86326301 9.49201188 14.9375 6.8125 C15.27652344 5.95269531 15.61554687 5.09289062 15.96484375 4.20703125 C17 2 17 2 19 0 C19.99 0 20.98 0 22 0 C22 7.59 22 15.18 22 23 C21.34 23 20.68 23 20 23 C19.67 17.39 19.34 11.78 19 6 C17.02 10.95 15.04 15.9 13 21 C11.68 21 10.36 21 9 21 C7.02 16.38 5.04 11.76 3 7 C2.67 12.28 2.34 17.56 2 23 C1.34 23 0.68 23 0 23 C0 15.41 0 7.82 0 0 Z " fill="#FFFFFF" transform="translate(977,25)"/>
<path d="M0 0 C1.21450951 3.64352853 0.74390047 4.31743594 -0.875 7.6875 C-5.35918272 16.12614055 -11.92994762 21.45606817 -21.00390625 24.390625 C-26.32447813 25.47277521 -31.60182102 25.30895778 -37 25 C-37 24.67 -37 24.34 -37 24 C-36.26394531 23.98582031 -35.52789062 23.97164062 -34.76953125 23.95703125 C-28.50243953 23.74655923 -28.50243953 23.74655923 -23.1875 20.75 C-22.465625 19.8425 -21.74375 18.935 -21 18 C-18.50343495 15.74180045 -16.02442945 13.51221473 -13 12 C-12.67 11.01 -12.34 10.02 -12 9 C-10.02866014 7.62464661 -8.02318078 6.29788956 -6 5 C-3.95281815 3.3825877 -1.98157808 1.69849549 0 0 Z " fill="#B12D8B" transform="translate(103,143)"/>
<path d="M0 0 C0.66 3.3 1.32 6.6 2 10 C1.34 10 0.68 10 0 10 C-0.33 10.99 -0.66 11.98 -1 13 C-3.03125 14.75390625 -3.03125 14.75390625 -5.5 16.5625 C-8.7783147 18.831494 -8.7783147 18.831494 -11 22 C-11.99 22 -12.98 22 -14 22 C-15.43443428 18.59854446 -16.26778254 15.70775828 -16 12 C-13.18372985 8.30505356 -9.75001582 5.70465743 -6 3 C-4.90558594 2.13181641 -4.90558594 2.13181641 -3.7890625 1.24609375 C-2 0 -2 0 0 0 Z " fill="#AA38BC" transform="translate(201,112)"/>
<path d="M0 0 C2.14875907 3.58126512 2.87492023 6.8321635 3 11 C0.83203125 13.546875 0.83203125 13.546875 -2.1875 15.75 C-3.17105469 16.48734375 -4.15460938 17.2246875 -5.16796875 17.984375 C-6.10253906 18.64953125 -7.03710938 19.3146875 -8 20 C-9.10794922 20.87398437 -9.10794922 20.87398437 -10.23828125 21.765625 C-12 23 -12 23 -14 23 C-14.38922918 21.71254964 -14.76098036 20.41980403 -15.125 19.125 C-15.33382812 18.40570313 -15.54265625 17.68640625 -15.7578125 16.9453125 C-15.87769531 15.98238281 -15.87769531 15.98238281 -16 15 C-14 13 -14 13 -11.5625 11.0625 C-9.10076423 9.15674435 -9.10076423 9.15674435 -7.4375 7.4375 C-6 6 -6 6 -3.9375 4.5 C-1.7513633 2.97192336 -1.7513633 2.97192336 0 0 Z " fill="#B12880" transform="translate(137,102)"/>
<path d="M0 0 C0.33 0.66 0.66 1.32 1 2 C0.27554687 2.59167969 -0.44890625 3.18335938 -1.1953125 3.79296875 C-2.16210938 4.58316406 -3.12890625 5.37335937 -4.125 6.1875 C-5.12660156 7.00476562 -6.12820313 7.82203125 -7.16015625 8.6640625 C-9.31839183 10.43933744 -11.44707405 12.23721975 -13.5625 14.0625 C-16 16 -16 16 -18 16 C-19.53214888 12.93570224 -19.22938548 10.3834358 -19 7 C-17.32960956 3.32514103 -15.45118836 1.09162931 -12 -1 C-7.49629295 -2.51693898 -4.45442668 -1.38744438 0 0 Z " fill="#AB36B1" transform="translate(283,40)"/>
<path d="M0 0 C0.47165352 5.77775561 -0.32752344 9.5724348 -4 14 C-8.81674683 17.47253841 -13.30025408 17.34198476 -19 17 C-15.61480363 11.2326284 -15.61480363 11.2326284 -12.6875 10.125 C-8.9375015 8.55523319 -7.08600482 5.88594383 -4.55078125 2.77734375 C-2.12747253 0 -2.12747253 0 0 0 Z " fill="#B91B4C" transform="translate(100,85)"/>
<path d="M0 0 C2.9375 0.8125 2.9375 0.8125 4.9375 3.8125 C5.375 6.25 5.375 6.25 4.9375 8.8125 C2.4375 11.125 2.4375 11.125 -0.0625 12.8125 C-2.97767292 11.73848892 -4.84060176 11.03439824 -7.0625 8.8125 C-6.875 5.3125 -6.875 5.3125 -6.0625 1.8125 C-3.0625 -0.1875 -3.0625 -0.1875 0 0 Z " fill="#FFFFFF" transform="translate(811.0625,38.1875)"/>
<path d="M0 0 C1 3 1 3 -0.125 5.9375 C-2.1931224 9.31543325 -3.58316284 10.99446515 -7 13 C-9.99494977 13.59898995 -12.95114711 13.86715238 -16 14 C-14.33333333 12.33333333 -12.66666667 10.66666667 -11 9 C-10.38125 8.34 -9.7625 7.68 -9.125 7 C-6.28694094 4.32888559 -3.20421558 2.2183031 0 0 Z " fill="#AB40C6" transform="translate(162,156)"/>
<path d="M0 0 C5.94 0 11.88 0 18 0 C18 0.66 18 1.32 18 2 C15.36 2 12.72 2 10 2 C10 8.93 10 15.86 10 23 C9.34 23 8.68 23 8 23 C7.67 16.4 7.34 9.8 7 3 C4.69 2.67 2.38 2.34 0 2 C0 1.34 0 0.68 0 0 Z " fill="#FFFFFF" transform="translate(956,25)"/>
<path d="M0 0 C-0.28015648 3.36187774 -0.77633891 4.76318238 -3.125 7.25 C-6.47336473 9.28813505 -9.12262548 9.69589219 -13 10 C-3.28571429 0 -3.28571429 0 0 0 Z " fill="#AB41C6" transform="translate(287,52)"/>
</svg>
