<svg width="16" height="16" viewBox="0 0 16 16" fill="none" xmlns="http://www.w3.org/2000/svg">
<g clip-path="url(#clip0_79_708)">
<path d="M13.0228 5.02276C13.0228 2.25332 10.77 0 8.0006 0C5.23086 0 2.97754 2.25302 2.97754 5.02276C2.97754 7.57304 4.88941 9.68046 7.35433 9.9986V13.0586H6.07904C5.72246 13.0586 5.43337 13.3477 5.43337 13.7043C5.43337 14.0609 5.72246 14.35 6.07904 14.35H7.35433V15.3543C7.35433 15.7109 7.64341 16 8.0006 16C8.35688 16 8.64597 15.7109 8.64597 15.3543V14.35H9.92126C10.2787 14.35 10.5678 14.0609 10.5678 13.7043C10.5678 13.3477 10.2787 13.0586 9.92126 13.0586H8.64597V9.9986C11.1112 9.68015 13.0228 7.57304 13.0228 5.02276ZM4.26948 5.02276C4.26948 2.96528 5.94313 1.29164 8.0006 1.29164C10.0572 1.29164 11.7317 2.96528 11.7317 5.02276C11.7317 7.08024 10.0575 8.75388 8.0006 8.75388C5.94313 8.75388 4.26948 7.08024 4.26948 5.02276Z" fill="white"/>
</g>
<defs>
<clipPath id="clip0_79_708">
<rect width="16" height="16" fill="white"/>
</clipPath>
</defs>
</svg>
