<svg width="14" height="14" viewBox="0 0 14 14" fill="none" xmlns="http://www.w3.org/2000/svg">
<path fill-rule="evenodd" clip-rule="evenodd" d="M9.33333 0.666667C9.33333 0.29848 9.6318 0 10 0H12.6667C13.4031 0 14 0.596953 14 1.33333V4C14 4.36819 13.7015 4.66667 13.3333 4.66667C12.9651 4.66667 12.6667 4.36819 12.6667 4V2.27525L9.64473 5.29719C9.6114 5.33055 9.57533 5.3596 9.5374 5.38447C10.2449 6.28947 10.6667 7.4288 10.6667 8.66667C10.6667 11.6122 8.27887 14 5.33333 14C2.38781 14 0 11.6122 0 8.66667C0 5.72113 2.38781 3.33333 5.33333 3.33333C6.5706 3.33333 7.70947 3.75465 8.61427 4.46164C8.63913 4.42359 8.66827 4.38752 8.70167 4.35412L11.7224 1.33333H10C9.6318 1.33333 9.33333 1.03485 9.33333 0.666667ZM5.33333 12.6642C3.12554 12.6642 1.33577 10.8745 1.33577 8.66667C1.33577 6.45887 3.12554 4.6691 5.33333 4.6691C7.54113 4.6691 9.33087 6.45887 9.33087 8.66667C9.33087 10.8745 7.54113 12.6642 5.33333 12.6642Z" fill="white"/>
</svg>
