<svg width="15" height="14" viewBox="0 0 15 14" fill="none" xmlns="http://www.w3.org/2000/svg">
<path d="M8.75 11.875H0.625M8.75 11.875C8.75 11.5435 8.8817 11.2255 9.11612 10.9911C9.35054 10.7567 9.66848 10.625 10 10.625C10.3315 10.625 10.6495 10.7567 10.8839 10.9911C11.1183 11.2255 11.25 11.5435 11.25 11.875M8.75 11.875C8.75 12.2065 8.8817 12.5245 9.11612 12.7589C9.35054 12.9933 9.66848 13.125 10 13.125C10.3315 13.125 10.6495 12.9933 10.8839 12.7589C11.1183 12.5245 11.25 12.2065 11.25 11.875M11.25 11.875H14.375M8.75 1.875H0.625M8.75 1.875C8.75 1.54348 8.8817 1.22554 9.11612 0.991117C9.35054 0.756697 9.66848 0.625 10 0.625C10.3315 0.625 10.6495 0.756697 10.8839 0.991117C11.1183 1.22554 11.25 1.54348 11.25 1.875M8.75 1.875C8.75 2.20652 8.8817 2.52446 9.11612 2.75888C9.35054 2.9933 9.66848 3.125 10 3.125C10.3315 3.125 10.6495 2.9933 10.8839 2.75888C11.1183 2.52446 11.25 2.20652 11.25 1.875M11.25 1.875H14.375M3.75 6.875H0.625M3.75 6.875C3.75 6.54348 3.8817 6.22554 4.11612 5.99112C4.35054 5.7567 4.66848 5.625 5 5.625C5.33152 5.625 5.64946 5.7567 5.88388 5.99112C6.1183 6.22554 6.25 6.54348 6.25 6.875M3.75 6.875C3.75 7.20652 3.8817 7.52446 4.11612 7.75888C4.35054 7.9933 4.66848 8.125 5 8.125C5.33152 8.125 5.64946 7.9933 5.88388 7.75888C6.1183 7.52446 6.25 7.20652 6.25 6.875M6.25 6.875L14.375 6.875" stroke="white" stroke-width="1.25" stroke-linecap="round" stroke-linejoin="round"/>
</svg>
